# xmcd CD database file
# 
# Track frame offsets:
# 	150
# 	13853
# 	29041
# 	41635
# 	54229
# 	69117
# 	82280
# 	94993
# 	109356
# 	123941
# 	135952
# 	148290
# 	162135
# 	177473
# 
# Disc length: 2522 seconds
# 
# Submitted via: Nero 6, 3, 1, 17
# 
# Revision: 0
# Processed by: cddbd v1.5.1PL0 Copyright (c) Steve Scherf et al.
#
DISCID=c709d80e
DTITLE=Stuart Hamblen - I Gotta Feeling [CD-2 of 2)
DYEAR=1900
DGENRE=
TTITLE0=This Ship Of Mine
TTITLE1=Remember Me
TTITLE2=When The Moon Shines Down Upon The Mountain
TTITLE3=I'll Find You
TTITLE4=Good Mornin' You All
TTITLE5=I Whisper Your Name
TTITLE6=I Gotta Feelin'
TTITLE7=Beyond The Sun
TTITLE8=Wrong Keyhole
TTITLE9=Standing On The Pier In The Rain
TTITLE10=Daddy's Cutie Pie
TTITLE11=Hidden You
TTITLE12=Golden River
TTITLE13=Blood On Your Hands
EXTD=
EXTT0=
EXTT1=
EXTT2=
EXTT3=
EXTT4=
EXTT5=
EXTT6=
EXTT7=
EXTT8=
EXTT9=
EXTT10=
EXTT11=
EXTT12=
EXTT13=
PLAYORDER=
